<?xml version="1.0" standalone="no"?>
<!DOCTYPE svg PUBLIC "-//W3C//DTD SVG 20010904//EN"
 "http://www.w3.org/TR/2001/REC-SVG-20010904/DTD/svg10.dtd">
<svg version="1.0" xmlns="http://www.w3.org/2000/svg"
 width="592.000000pt" height="592.000000pt" viewBox="0 0 592.000000 592.000000"
 preserveAspectRatio="xMidYMid meet">

<g transform="translate(0.000000,592.000000) scale(0.100000,-0.100000)"
fill="#000000" stroke="none">
<path d="M2920 4174 c0 -26 5 -32 28 -37 50 -11 93 -46 115 -95 22 -47 22 -49
22 -737 0 -748 -1 -769 -53 -818 -15 -14 -49 -35 -75 -47 -44 -19 -48 -24 -45
-51 l3 -30 405 0 405 1 0 31 c0 30 -3 32 -54 46 -77 19 -120 49 -142 97 -18
39 -19 81 -19 789 l0 747 93 0 c144 -1 210 -43 257 -167 31 -79 40 -323 16
-426 -39 -167 -119 -247 -245 -247 l-60 0 -7 -35 c-3 -20 -4 -39 -1 -42 15
-14 129 -33 202 -33 317 0 532 182 575 487 31 223 -64 428 -240 518 -131 67
-231 77 -747 79 l-433 1 0 -31z m630 12 c376 -4 423 -10 539 -71 163 -86 241
-225 241 -430 0 -170 -49 -295 -155 -400 -94 -93 -203 -139 -360 -151 -79 -6
-222 9 -238 25 -4 4 -5 19 -2 32 5 21 12 24 54 25 180 2 273 153 274 444 0
193 -37 314 -116 374 -57 43 -182 67 -266 50 l-32 -7 3 -751 c2 -593 6 -757
16 -781 27 -60 89 -106 165 -120 30 -6 37 -11 37 -31 l0 -24 -390 0 -390 0 0
24 c0 18 9 27 45 40 53 21 90 61 107 119 10 32 13 204 13 747 l0 705 -23 47
c-24 48 -64 81 -114 93 -20 5 -28 14 -28 29 0 21 3 21 142 19 79 -2 294 -5
478 -7z"/>
<path d="M2235 4170 c-245 -44 -414 -190 -466 -400 -17 -69 -17 -208 0 -280
39 -161 113 -241 407 -438 278 -186 304 -216 304 -354 0 -84 -22 -133 -80
-179 -49 -39 -147 -63 -233 -56 -133 11 -206 73 -288 242 -27 55 -49 106 -49
113 0 8 -19 12 -61 12 -49 0 -60 -3 -56 -14 3 -8 11 -108 17 -223 6 -114 13
-213 15 -219 4 -14 134 -49 240 -65 103 -15 331 -15 415 0 329 60 508 253 512
552 2 161 -44 280 -151 391 -49 51 -126 108 -296 221 -275 182 -288 196 -293
316 -3 64 0 85 17 119 37 72 104 110 212 119 163 14 253 -58 324 -260 l28 -78
49 3 49 3 0 234 c0 246 -3 261 -44 239 -12 -6 -51 -8 -96 -4 -150 11 -427 15
-476 6z m485 -14 c47 -1 92 1 100 4 13 4 15 -26 18 -223 l2 -228 -41 3 c-41 3
-42 4 -64 64 -69 185 -140 252 -276 262 -187 13 -303 -79 -303 -238 1 -126 43
-172 335 -360 270 -173 351 -260 394 -425 18 -69 20 -201 4 -277 -40 -192
-185 -336 -401 -399 -154 -44 -521 -34 -682 19 l-51 17 -6 125 c-4 69 -10 169
-14 223 l-7 97 44 0 44 0 33 -78 c91 -221 195 -301 378 -289 150 9 238 74 263
193 18 85 1 155 -56 231 -13 17 -124 99 -246 181 -359 242 -418 323 -418 578
0 286 165 467 478 524 26 5 124 6 217 3 94 -3 208 -6 255 -7z"/>
</g>
</svg>
